HIERARCHY
ROOT Hips
{
	OFFSET 0.00 0.00 0.00
	CHANNELS 6 Xposition Yposition Zposition Zrotation Yrotation Xrotation
	JOINT Spine
	{
		OFFSET	-0.0066	10.8226	-0.4307
		CHANNELS 3 Zrotation Yrotation Xrotation
		JOINT Spine1
		{
			OFFSET	0.0000	12.6263	-0.2112
			CHANNELS 3 Zrotation Yrotation Xrotation
			JOINT Spine2
			{
				OFFSET	0.0000	14.4301	0.0000
				CHANNELS 3 Zrotation Yrotation Xrotation
				JOINT Neck
				{
					OFFSET	0.0000	16.2338	0.0000
					CHANNELS 3 Zrotation Yrotation Xrotation
					JOINT Head
					{
						OFFSET	0.0000	6.7614	0.0000
						CHANNELS 3 Zrotation Yrotation Xrotation
						End Site
						{
							OFFSET 0.0000 23.0037 2.4456
						}
					}
				}
				JOINT LeftShoulder
				{
					OFFSET	10.9527	13.3171	-1.4436
					CHANNELS 3 Zrotation Yrotation Xrotation
					JOINT LeftArm
					{
						OFFSET	12.5621	-10.8187	0.1359
						CHANNELS 3 Zrotation Yrotation Xrotation
						JOINT LeftForeArm
						{
							OFFSET	18.8844	-21.6036	-1.0453
							CHANNELS 3 Zrotation Yrotation Xrotation
							JOINT LeftHand
							{
								OFFSET	13.3138	-14.1460	5.6551
								CHANNELS 3 Zrotation Yrotation Xrotation
								JOINT LeftHandThumb1
								{
									OFFSET	-0.2234	-4.5184	5.7249
									CHANNELS 3 Zrotation Yrotation Xrotation
									JOINT LeftHandThumb2
									{
										OFFSET	-0.1787	-3.6147	4.5798
										CHANNELS 3 Zrotation Yrotation Xrotation
										JOINT LeftHandThumb3
										{
											OFFSET	0.3288	-5.9239	3.0121
											CHANNELS 3 Zrotation Yrotation Xrotation
											End Site
											{
												OFFSET 0.7426 -5.8978 -0.2421
											}
										}
									}
								}
								JOINT LeftHandIndex1
								{
									OFFSET	9.9406	-11.6381	6.4224
									CHANNELS 3 Zrotation Yrotation Xrotation
									JOINT LeftHandIndex2
									{
										OFFSET	3.7566	-3.9716	0.6536
										CHANNELS 3 Zrotation Yrotation Xrotation
										JOINT LeftHandIndex3
										{
											OFFSET	0.1239	-4.1016	0.5838
											CHANNELS 3 Zrotation Yrotation Xrotation
											End Site
											{
												OFFSET -0.5425 -5.8416 0.4926
											}
										}
									}
								}
								JOINT LeftHandMiddle1
								{
									OFFSET	9.7285	-13.5636	1.1502
									CHANNELS 3 Zrotation Yrotation Xrotation
									JOINT LeftHandMiddle2
									{
										OFFSET	3.6112	-4.6700	-0.0223
										CHANNELS 3 Zrotation Yrotation Xrotation
										JOINT LeftHandMiddle3
										{
											OFFSET	-0.9717	-4.4064	0.5814
											CHANNELS 3 Zrotation Yrotation Xrotation
											End Site
											{
												OFFSET -0.5473 -6.5481 0.5540
											}
										}
									}
								}
								JOINT LeftHandRing1
								{
									OFFSET	7.3735	-14.4731	-3.1009
									CHANNELS 3 Zrotation Yrotation Xrotation
									JOINT LeftHandRing2
									{
										OFFSET	3.1552	-4.3381	-0.6877
										CHANNELS 3 Zrotation Yrotation Xrotation
										JOINT LeftHandRing3
										{
											OFFSET	-0.6730	-3.8541	0.3914
											CHANNELS 3 Zrotation Yrotation Xrotation
											End Site
											{
												OFFSET -1.3498 -5.2602 0.6271
											}
										}
									}
								}
								JOINT LeftHandPinky1
								{
									OFFSET	4.8259	-14.8922	-6.2759
									CHANNELS 3 Zrotation Yrotation Xrotation
									JOINT LeftHandPinky2
									{
										OFFSET	1.6777	-3.4757	-0.9769
										CHANNELS 3 Zrotation Yrotation Xrotation
										JOINT LeftHandPinky3
										{
											OFFSET	-0.4572	-2.7695	-0.0728
											CHANNELS 3 Zrotation Yrotation Xrotation
											End Site
											{
												OFFSET -1.7306 -3.7265 0.8577
											}
										}
									}
								}
							}
						}
					}
				}
				JOINT RightShoulder
				{
					OFFSET	-10.9527	13.3171	-1.4436
					CHANNELS 3 Zrotation Yrotation Xrotation
					JOINT RightArm
					{
						OFFSET	-12.5621	-10.8187	0.1359
						CHANNELS 3 Zrotation Yrotation Xrotation
						JOINT RightForeArm
						{
							OFFSET	-12.9927	-15.1138	-1.1998
							CHANNELS 3 Zrotation Yrotation Xrotation
							JOINT RightHand
							{
								OFFSET	-19.2055	-20.6359	5.8096
								CHANNELS 3 Zrotation Yrotation Xrotation
								JOINT RightHandIndex1
								{
									OFFSET	-11.7773	-11.2003	3.5246
									CHANNELS 3 Zrotation Yrotation Xrotation
									JOINT RightHandIndex2
									{
										OFFSET	-1.8031	-2.3101	0.8667
										CHANNELS 3 Zrotation Yrotation Xrotation
										JOINT RightHandIndex3
										{
											OFFSET	-0.9561	-2.4372	0.8479
											CHANNELS 3 Zrotation Yrotation Xrotation
											End Site
											{
												OFFSET -0.3592 -3.3007 1.2418
											}
										}
									}
								}
								JOINT RightHandMiddle1
								{
									OFFSET	-11.1069	-12.6853	0.1207
									CHANNELS 3 Zrotation Yrotation Xrotation
									JOINT RightHandMiddle2
									{
										OFFSET	-1.4413	-2.9544	0.4089
										CHANNELS 3 Zrotation Yrotation Xrotation
										JOINT RightHandMiddle3
										{
											OFFSET	-0.5774	-2.5977	0.3048
											CHANNELS 3 Zrotation Yrotation Xrotation
											End Site
											{
												OFFSET -0.3601 -3.5348 0.4882
											}
										}
									}
								}
								JOINT RightHandRing1
								{
									OFFSET	-9.8468	-13.0073	-3.1392
									CHANNELS 3 Zrotation Yrotation Xrotation
									JOINT RightHandRing2
									{
										OFFSET	-0.6811	-2.8000	-0.1504
										CHANNELS 3 Zrotation Yrotation Xrotation
										JOINT RightHandRing3
										{
											OFFSET	-0.4028	-2.2868	-0.2694
											CHANNELS 3 Zrotation Yrotation Xrotation
											End Site
											{
												OFFSET 0.1853 -3.2500 0.2083
											}
										}
									}
								}
								JOINT RightHandPinky1
								{
									OFFSET	-7.8050	-12.5466	-5.9736
									CHANNELS 3 Zrotation Yrotation Xrotation
									JOINT RightHandPinky2
									{
										OFFSET	0.0105	-2.2470	-0.3620
										CHANNELS 3 Zrotation Yrotation Xrotation
										JOINT RightHandPinky3
										{
											OFFSET	0.2970	-1.8184	-0.0591
											CHANNELS 3 Zrotation Yrotation Xrotation
											End Site
											{
												OFFSET -0.0337 -2.1669 -0.2214
											}
										}
									}
								}
								JOINT RightHandThumb1
								{
									OFFSET	-1.4515	-3.9395	1.6913
									CHANNELS 3 Zrotation Yrotation Xrotation
									JOINT RightHandThumb2
									{
										OFFSET	-1.1612	-3.1516	3.3390
										CHANNELS 3 Zrotation Yrotation Xrotation
										JOINT RightHandThumb3
										{
											OFFSET	-0.2119	-3.9644	3.2468
											CHANNELS 3 Zrotation Yrotation Xrotation
											End Site
											{
												OFFSET -0.4081 -3.7882 1.9049
											}
										}
									}
								}
							}
						}
					}
				}
			}
		}
	}
	JOINT LeftUpLeg
	{
		OFFSET	13.2805	-6.0125	-0.5314
		CHANNELS 3 Zrotation Yrotation Xrotation
		JOINT LeftLeg
		{
			OFFSET	0.4217	-52.0404	1.5006
			CHANNELS 3 Zrotation Yrotation Xrotation
			JOINT LeftFoot
			{
				OFFSET	0.2212	-50.8660	-3.6051
				CHANNELS 3 Zrotation Yrotation Xrotation
				JOINT LeftToeBase
				{
					OFFSET	2.8257	-10.2731	19.2966
					CHANNELS 3 Zrotation Yrotation Xrotation
					End Site
					{
						OFFSET 0.8536 0.3355 9.0832
					}
				}
			}
		}
	}
	JOINT RightUpLeg
	{
		OFFSET	-13.2937	-6.0125	-0.5314
		CHANNELS 3 Zrotation Yrotation Xrotation
		JOINT RightLeg
		{
			OFFSET	-0.4217	-52.0404	1.5006
			CHANNELS 3 Zrotation Yrotation Xrotation
			JOINT RightFoot
			{
				OFFSET	-0.2212	-50.8660	-3.6051
				CHANNELS 3 Zrotation Yrotation Xrotation
				JOINT RightToeBase
				{
					OFFSET	-2.8257	-10.2731	19.2966
					CHANNELS 3 Zrotation Yrotation Xrotation
					End Site
					{
						OFFSET -0.8536 0.3355 9.0832
					}
				}
			}
		}
	}
}
MOTION
Frames: 4
Frame Time: 0.0333333
0.2704 105.8333 2.7671 0.6107 -24.7878 -2.7345 4.5967 17.2531 3.3699 3.6035 2.1937 3.0371 3.6039 2.2724 2.9940 -4.1596 1.3456 2.0740 -7.6728 2.4726 5.2831 3.2563 -11.8132 3.0343 -14.3898 -21.2087 -29.2385 65.8291 -24.4189 -113.7656 13.1517 -33.0195 21.9325 8.6985 10.9768 25.4113 -11.4515 -3.2533 -7.2214 0.1666 19.0290 25.1432 -88.2517 -24.1275 4.7773 -46.5586 -21.6186 -11.9288 -44.3177 -10.0434 -12.6786 -82.8711 -28.3590 -3.4331 -38.3322 -11.1750 -15.1483 -57.8923 -10.9056 -12.1092 -78.8966 -31.9564 -10.7564 -41.3348 -10.0322 -16.1180 -45.6882 -7.9393 -15.5722 -70.5348 -33.6092 -20.6626 -48.4096 -10.5193 -23.9790 -31.0937 -2.5869 -8.5174 -5.3092 20.0556 -0.3795 2.2016 31.8528 -36.2259 -54.2557 41.1042 -110.0376 -26.0165 12.2009 8.6171 83.7055 10.6813 9.7486 72.6926 22.9187 12.2190 38.8023 13.3707 3.6806 72.7046 16.2628 -1.1355 74.0800 20.3577 -3.6629 45.8237 10.6145 -5.1779 57.1003 18.9847 -14.3131 83.0368 16.3910 -20.2533 40.4630 1.7239 -5.7707 43.6278 17.9316 -24.9896 75.5140 5.7596 -21.2384 61.9866 5.8714 -20.3674 10.9077 -19.1410 20.0306 -9.8050 -6.8953 6.1876 -15.2275 12.7451 47.0819 9.3296 17.5519 -33.7800 0.3253 -10.9679 28.2667 -16.3567 -2.8800 3.1661 -0.0000 0.0000 -1.0635 -21.8934 -15.2837 10.0578 -0.4897 -4.0486 29.8589 20.6835 4.7800 -28.0659 0.0000 0.0000 -0.5050 
1.2451 106.2508 3.6846 0.7827 -25.2050 -3.1877 4.1449 17.2190 3.9839 3.1445 2.1125 3.4044 3.1539 2.1663 3.3718 -3.7825 1.1844 2.0488 -7.7778 2.1273 5.2090 3.1770 -12.3016 3.1268 -13.0213 -21.5913 -30.6599 64.9390 -25.0310 -112.2432 12.3297 -33.6406 21.5522 8.6985 10.9768 25.4113 -11.4515 -3.2533 -7.2214 0.1666 19.0290 25.1432 -88.2517 -24.1275 4.7773 -46.5586 -21.6186 -11.9288 -44.3177 -10.0434 -12.6786 -82.8711 -28.3590 -3.4331 -38.3322 -11.1750 -15.1483 -57.8923 -10.9056 -12.1092 -78.8965 -31.9564 -10.7564 -41.3347 -10.0322 -16.1180 -45.6882 -7.9393 -15.5721 -70.5348 -33.6092 -20.6626 -48.4096 -10.5193 -23.9790 -31.0937 -2.5869 -8.5174 -5.7598 19.6170 -0.5276 4.0208 31.8932 -34.7783 -54.8868 40.9250 -110.9987 -26.9305 13.5894 7.2575 83.7055 10.6813 9.7486 72.6926 22.9187 12.2190 38.8022 13.3707 3.6806 72.7046 16.2628 -1.1355 74.0800 20.3577 -3.6629 45.8237 10.6145 -5.1779 57.1003 18.9847 -14.3131 83.0368 16.3910 -20.2533 40.4630 1.7239 -5.7707 43.6278 17.9316 -24.9896 75.5140 5.7595 -21.2384 61.9866 5.8714 -20.3674 10.9077 -19.1410 20.0306 -9.8051 -6.8952 6.1876 -15.2275 12.7451 47.0819 8.9392 17.5893 -32.3172 -0.2796 -10.8007 28.9653 -15.2469 -4.1456 5.5520 -0.0000 -0.0000 -0.5850 -23.2340 -15.2962 13.8864 -1.3563 -3.9354 24.6636 20.5966 4.2291 -25.8111 0.0000 -0.0000 -2.4076 
2.4101 106.3794 4.9278 1.7396 -25.6277 -4.0624 3.5866 17.3061 4.3373 2.6043 2.1677 3.6180 2.6189 2.2039 3.5931 -3.4588 1.0418 2.1950 -7.9666 1.8762 5.1399 3.0312 -12.3686 3.1632 -12.0722 -22.2102 -31.5524 63.3221 -26.0531 -109.5256 11.5405 -33.8187 21.3367 8.6985 10.9768 25.4113 -11.4515 -3.2533 -7.2214 0.1666 19.0290 25.1432 -88.2517 -24.1275 4.7773 -46.5586 -21.6186 -11.9288 -44.3177 -10.0434 -12.6786 -82.8711 -28.3590 -3.4331 -38.3322 -11.1750 -15.1483 -57.8923 -10.9056 -12.1092 -78.8965 -31.9564 -10.7564 -41.3347 -10.0322 -16.1180 -45.6882 -7.9394 -15.5722 -70.5348 -33.6092 -20.6626 -48.4096 -10.5193 -23.9789 -31.0937 -2.5869 -8.5174 -5.6290 19.5399 -0.4794 5.4239 32.0219 -33.5788 -55.3297 40.7933 -111.6755 -27.5871 14.4337 6.6576 83.7055 10.6813 9.7486 72.6926 22.9187 12.2190 38.8023 13.3707 3.6806 72.7046 16.2628 -1.1355 74.0800 20.3577 -3.6629 45.8237 10.6145 -5.1779 57.1003 18.9847 -14.3132 83.0368 16.3910 -20.2533 40.4630 1.7239 -5.7707 43.6278 17.9316 -24.9896 75.5140 5.7596 -21.2384 61.9866 5.8714 -20.3674 10.9077 -19.1410 20.0306 -9.8050 -6.8952 6.1876 -15.2275 12.7451 47.0819 8.0199 17.3788 -31.7404 -1.7911 -10.2299 32.5252 -13.1898 -4.4345 3.6484 0.0000 0.0000 -0.3964 -26.3242 -15.9618 15.4162 -1.7728 -2.1379 24.2578 21.4815 3.6880 -22.3990 0.0000 -0.0000 -7.1780 
3.6345 106.8326 6.1975 2.6235 -27.0893 -4.3915 3.0803 17.5500 4.3815 2.1677 2.4073 3.6285 2.1850 2.4347 3.6068 -3.3285 1.0010 2.3656 -8.3310 1.9898 5.0807 2.8256 -12.0196 3.1422 -11.8663 -22.6501 -31.5936 61.1134 -27.2788 -105.8989 11.1415 -34.1401 21.8165 8.6985 10.9768 25.4113 -11.4515 -3.2533 -7.2214 0.1666 19.0290 25.1432 -88.2517 -24.1275 4.7773 -46.5586 -21.6186 -11.9288 -44.3177 -10.0434 -12.6786 -82.8711 -28.3590 -3.4331 -38.3322 -11.1750 -15.1483 -57.8923 -10.9056 -12.1092 -78.8965 -31.9564 -10.7564 -41.3347 -10.0322 -16.1180 -45.6882 -7.9393 -15.5721 -70.5348 -33.6092 -20.6626 -48.4095 -10.5193 -23.9790 -31.0937 -2.5869 -8.5174 -4.9960 19.8369 -0.2596 5.8914 32.2532 -32.9345 -55.3227 40.7955 -111.6647 -27.8263 14.8992 6.6409 83.7055 10.6813 9.7486 72.6926 22.9187 12.2190 38.8022 13.3707 3.6806 72.7046 16.2627 -1.1355 74.0800 20.3577 -3.6629 45.8237 10.6145 -5.1779 57.1003 18.9847 -14.3131 83.0368 16.3910 -20.2533 40.4630 1.7239 -5.7707 43.6278 17.9316 -24.9896 75.5140 5.7596 -21.2384 61.9866 5.8714 -20.3674 10.9077 -19.1410 20.0306 -9.8050 -6.8953 6.1876 -15.2275 12.7451 47.0819 7.1658 17.0422 -30.9755 -2.6895 -9.7623 35.5086 -11.7186 -3.9640 -0.0724 0.0000 -0.0000 -0.2094 -28.8370 -16.6252 14.3894 -2.5945 0.8655 25.8832 21.9063 2.7559 -17.6926 -0.0000 0.0000 -12.7953 
